<svg width="733" height="600" xmlns="http://www.w3.org/2000/svg">
 <defs>
  <linearGradient gradientTransform="matrix(57.342586517333984,0,0,51.154327392578125,-4438.06591796875,-3456.51416015625)" gradientUnits="userSpaceOnUse" y2="39.825" x2="69.0241" y1="30.5814" x1="69.0241" id="svg_5">
   <stop stop-color="#FF6A00"/>
   <stop stop-color="#FF8C00" offset="1"/>
  </linearGradient>
  <linearGradient gradientTransform="matrix(57.342586517333984,0,0,51.154327392578125,-4438.06591796875,-3456.51416015625)" gradientUnits="userSpaceOnUse" y2="79.2507" x2="66.7649" y1="40.3153" x1="66.7649" id="svg_4">
   <stop stop-color="#FF6A00"/>
   <stop stop-color="#FF8C00" offset="1"/>
  </linearGradient>
  <linearGradient gradientTransform="matrix(57.342586517333984,0,0,51.154327392578125,-4438.06591796875,-3456.51416015625)" gradientUnits="userSpaceOnUse" y2="60.7565" x2="44.1387" y1="30.66" x1="44.1387" id="svg_3">
   <stop stop-color="#FF6A00"/>
   <stop stop-color="#FF8C00" offset="1"/>
  </linearGradient>
  <linearGradient gradientTransform="matrix(57.342586517333984,0,0,51.154327392578125,-4438.06591796875,-3456.51416015625)" gradientUnits="userSpaceOnUse" y2="63.6774" x2="34.2312" y1="36.4227" x1="34.2312" id="svg_2">
   <stop stop-color="#FF6A00"/>
   <stop stop-color="#FF8C00" offset="1"/>
  </linearGradient>
  <linearGradient gradientTransform="matrix(57.342586517333984,0,0,51.154327392578125,-4438.06591796875,-3456.51416015625)" gradientUnits="userSpaceOnUse" y2="43.2146" x2="82.1271" y1="40.3153" x1="82.1271" id="svg_1">
   <stop stop-color="#FF6A00"/>
   <stop stop-color="#FF8C00" offset="1"/>
  </linearGradient>
 </defs>
 <g>
  <title>Layer 1</title>
  <g stroke="null">
   <g stroke="null">
    <path stroke="null" fill="url(#svg_5)" d="m222.18973,-0.36514c168.50097,0 337.01176,0 510.63036,0c0,36.86511 0,73.73023 0,111.70339c-50.86796,1.36847 -290.01458,0.78128 -343.10108,1.36601c-79.69425,0.87587 -24.39289,0.29359 -68.33866,0.26903l-82.78374,-92.18244l-14.60478,-16.89211c-1.8021,-2.08956 -1.8021,-2.08956 -1.8021,-4.26387z"/>
    <path stroke="null" fill="url(#svg_4)" d="m344.29545,119.20879c69.59657,0 139.20174,0 210.91366,0c0,122.48038 0,244.95708 0,371.14854c-1.0024,0.36361 -103.03191,104.74066 -105.96786,107.14469c0,-146.89538 0,-293.80059 0,-445.15025c-24.64594,0 -49.28329,0 -74.67366,0c-5.99473,-6.56226 -28.90245,-31.26103 -30.27214,-33.14298z"/>
    <path stroke="null" fill="url(#svg_3)" d="m0.17968,0.60655c19.9816,-0.17689 146.18167,3.48751 159.11947,3.59684c9.64561,10.15295 148.85595,149.24659 183.20648,183.82069l0.92746,182.29007l-5.43825,0c-3.20128,-1.61047 -336.81522,-366.48789 -337.81516,-369.7076z"/>
    <path stroke="null" fill="url(#svg_2)" d="m0.17968,71.39101c3.48382,2.87329 94.92184,103.44467 97.06421,105.16938c2.70868,3.31307 2.55881,5.28715 2.56864,9.59402c0.00983,1.0675 0.27762,162.71139 0.18672,166.65096c-3.62263,2.01708 -98.78033,53.38992 -99.81958,53.38992c0,-110.4897 0,-220.9794 0,-334.80428z"/>
    <path stroke="null" fill="url(#svg_1)" d="m566.31164,119.20879c47.62123,0 95.24246,0 144.30831,0c-5.89031,6.62491 -32.91941,32.14427 -36.47325,35.28536c-0.78497,0.69406 -95.15769,0.09459 -107.83507,-0.00983c0,-11.63321 0,-23.27502 0,-35.27553z"/>
   </g>
  </g>
 </g>
</svg>